<mxfile host="app.diagrams.net" modified="2022-09-09T08:19:28.924Z" agent="5.0 (Macintosh; Intel Mac OS X 10_15_7) AppleWebKit/537.36 (KHTML, like Gecko) Chrome/104.0.0.0 Safari/537.36" etag="yEUurS1ub5CoFkheLO-F" version="20.2.7" type="github">
  <diagram id="kTxz2f3oWA5v7mhp_rZz" name="第 1 页">
    <mxGraphModel dx="2276" dy="769" grid="1" gridSize="10" guides="1" tooltips="1" connect="1" arrows="1" fold="1" page="1" pageScale="1" pageWidth="850" pageHeight="1100" math="0" shadow="0">
      <root>
        <mxCell id="0" />
        <mxCell id="1" parent="0" />
        <mxCell id="1yzsQhWypgodVdBQaPRY-38" value="" style="rounded=0;whiteSpace=wrap;html=1;" vertex="1" parent="1">
          <mxGeometry x="-275" y="167.5" width="215" height="440" as="geometry" />
        </mxCell>
        <mxCell id="1yzsQhWypgodVdBQaPRY-8" value="" style="verticalLabelPosition=bottom;verticalAlign=top;html=1;shape=mxgraph.basic.rect;fillColor2=none;strokeWidth=1;size=20;indent=5;" vertex="1" parent="1">
          <mxGeometry x="280" y="180" width="480" height="380" as="geometry" />
        </mxCell>
        <mxCell id="1yzsQhWypgodVdBQaPRY-2" value="" style="rounded=0;whiteSpace=wrap;html=1;" vertex="1" parent="1">
          <mxGeometry x="300" y="250" width="210" height="250" as="geometry" />
        </mxCell>
        <mxCell id="1yzsQhWypgodVdBQaPRY-3" value="流媒体服务" style="rounded=0;whiteSpace=wrap;html=1;fillColor=#d5e8d4;strokeColor=#82b366;" vertex="1" parent="1">
          <mxGeometry x="300" y="250" width="210" height="40" as="geometry" />
        </mxCell>
        <mxCell id="1yzsQhWypgodVdBQaPRY-4" value="&lt;br&gt;&lt;br&gt;&lt;br&gt;......" style="rounded=0;whiteSpace=wrap;html=1;" vertex="1" parent="1">
          <mxGeometry x="540" y="380" width="205" height="120" as="geometry" />
        </mxCell>
        <mxCell id="1yzsQhWypgodVdBQaPRY-5" value="流媒体服务" style="rounded=0;whiteSpace=wrap;html=1;" vertex="1" parent="1">
          <mxGeometry x="540" y="380" width="205" height="40" as="geometry" />
        </mxCell>
        <mxCell id="1yzsQhWypgodVdBQaPRY-6" value="&lt;br&gt;&lt;br&gt;&lt;br&gt;........" style="rounded=0;whiteSpace=wrap;html=1;" vertex="1" parent="1">
          <mxGeometry x="540" y="250" width="205" height="100" as="geometry" />
        </mxCell>
        <mxCell id="1yzsQhWypgodVdBQaPRY-7" value="流媒体服务" style="rounded=0;whiteSpace=wrap;html=1;fillColor=#d5e8d4;strokeColor=#82b366;" vertex="1" parent="1">
          <mxGeometry x="540" y="250" width="205" height="40" as="geometry" />
        </mxCell>
        <mxCell id="1yzsQhWypgodVdBQaPRY-9" value="rtsp/rtmp" style="rounded=1;whiteSpace=wrap;html=1;dashed=1;" vertex="1" parent="1">
          <mxGeometry x="310" y="300" width="70" height="30" as="geometry" />
        </mxCell>
        <mxCell id="1yzsQhWypgodVdBQaPRY-10" value="连接" style="rounded=1;whiteSpace=wrap;html=1;dashed=1;" vertex="1" parent="1">
          <mxGeometry x="410" y="300" width="70" height="30" as="geometry" />
        </mxCell>
        <mxCell id="1yzsQhWypgodVdBQaPRY-11" value="通道" style="rounded=1;whiteSpace=wrap;html=1;dashed=1;" vertex="1" parent="1">
          <mxGeometry x="310" y="340" width="70" height="30" as="geometry" />
        </mxCell>
        <mxCell id="1yzsQhWypgodVdBQaPRY-12" value="状态" style="rounded=1;whiteSpace=wrap;html=1;dashed=1;" vertex="1" parent="1">
          <mxGeometry x="410" y="340" width="70" height="30" as="geometry" />
        </mxCell>
        <mxCell id="1yzsQhWypgodVdBQaPRY-13" value="" style="verticalLabelPosition=bottom;verticalAlign=top;html=1;shape=mxgraph.basic.rect;fillColor2=none;strokeWidth=1;size=20;indent=5;" vertex="1" parent="1">
          <mxGeometry x="50" y="330" width="110" height="160" as="geometry" />
        </mxCell>
        <mxCell id="1yzsQhWypgodVdBQaPRY-14" value="推流" style="rounded=0;whiteSpace=wrap;html=1;dashed=1;fillColor=#d5e8d4;strokeColor=#82b366;" vertex="1" parent="1">
          <mxGeometry x="50" y="331" width="110" height="30" as="geometry" />
        </mxCell>
        <mxCell id="1yzsQhWypgodVdBQaPRY-15" value="" style="verticalLabelPosition=bottom;verticalAlign=top;html=1;shape=mxgraph.basic.rect;fillColor2=none;strokeWidth=1;size=20;indent=5;" vertex="1" parent="1">
          <mxGeometry x="890" y="270" width="120" height="210" as="geometry" />
        </mxCell>
        <mxCell id="1yzsQhWypgodVdBQaPRY-16" value="拉流" style="rounded=0;whiteSpace=wrap;html=1;dashed=1;fillColor=#d5e8d4;strokeColor=#82b366;" vertex="1" parent="1">
          <mxGeometry x="890" y="270" width="120" height="30" as="geometry" />
        </mxCell>
        <mxCell id="1yzsQhWypgodVdBQaPRY-19" value="" style="endArrow=classic;html=1;rounded=0;exitX=1.033;exitY=0.495;exitDx=0;exitDy=0;exitPerimeter=0;entryX=0;entryY=0.5;entryDx=0;entryDy=0;edgeStyle=orthogonalEdgeStyle;curved=1;dashed=1;" edge="1" parent="1" source="1yzsQhWypgodVdBQaPRY-13" target="1yzsQhWypgodVdBQaPRY-11">
          <mxGeometry width="50" height="50" relative="1" as="geometry">
            <mxPoint x="50" y="420" as="sourcePoint" />
            <mxPoint x="100" y="370" as="targetPoint" />
          </mxGeometry>
        </mxCell>
        <mxCell id="1yzsQhWypgodVdBQaPRY-41" value="ffmpeg" style="edgeLabel;html=1;align=center;verticalAlign=middle;resizable=0;points=[];" vertex="1" connectable="0" parent="1yzsQhWypgodVdBQaPRY-19">
          <mxGeometry x="-0.0271" y="3" relative="1" as="geometry">
            <mxPoint as="offset" />
          </mxGeometry>
        </mxCell>
        <mxCell id="1yzsQhWypgodVdBQaPRY-20" value="" style="verticalLabelPosition=bottom;verticalAlign=top;html=1;shape=mxgraph.basic.rect;fillColor2=none;strokeWidth=1;size=20;indent=5;" vertex="1" parent="1">
          <mxGeometry x="-220" y="220" width="100" height="110" as="geometry" />
        </mxCell>
        <mxCell id="1yzsQhWypgodVdBQaPRY-21" value="Android" style="rounded=0;whiteSpace=wrap;html=1;dashed=1;fillColor=#d5e8d4;strokeColor=#82b366;" vertex="1" parent="1">
          <mxGeometry x="-220" y="220" width="100" height="30" as="geometry" />
        </mxCell>
        <mxCell id="1yzsQhWypgodVdBQaPRY-32" style="edgeStyle=orthogonalEdgeStyle;rounded=0;orthogonalLoop=1;jettySize=auto;html=1;exitX=1;exitY=0.25;exitDx=0;exitDy=0;entryX=0;entryY=0;entryDx=0;entryDy=0;curved=1;dashed=1;fillColor=#dae8fc;strokeColor=#6c8ebf;" edge="1" parent="1" source="1yzsQhWypgodVdBQaPRY-22" target="1yzsQhWypgodVdBQaPRY-9">
          <mxGeometry relative="1" as="geometry">
            <Array as="points">
              <mxPoint x="-30" y="230" />
              <mxPoint x="310" y="230" />
            </Array>
          </mxGeometry>
        </mxCell>
        <mxCell id="1yzsQhWypgodVdBQaPRY-33" value="连接" style="edgeLabel;html=1;align=center;verticalAlign=middle;resizable=0;points=[];" vertex="1" connectable="0" parent="1yzsQhWypgodVdBQaPRY-32">
          <mxGeometry x="-0.0728" y="3" relative="1" as="geometry">
            <mxPoint as="offset" />
          </mxGeometry>
        </mxCell>
        <mxCell id="1yzsQhWypgodVdBQaPRY-22" value="建立连接" style="rounded=0;whiteSpace=wrap;html=1;dashed=1;" vertex="1" parent="1">
          <mxGeometry x="-200" y="261" width="60" height="25" as="geometry" />
        </mxCell>
        <mxCell id="1yzsQhWypgodVdBQaPRY-34" style="edgeStyle=orthogonalEdgeStyle;curved=1;rounded=0;orthogonalLoop=1;jettySize=auto;html=1;exitX=1;exitY=0.5;exitDx=0;exitDy=0;entryX=0.009;entryY=0.375;entryDx=0;entryDy=0;entryPerimeter=0;dashed=1;" edge="1" parent="1" source="1yzsQhWypgodVdBQaPRY-23" target="1yzsQhWypgodVdBQaPRY-13">
          <mxGeometry relative="1" as="geometry">
            <Array as="points">
              <mxPoint x="-25" y="315" />
              <mxPoint x="-25" y="390" />
            </Array>
          </mxGeometry>
        </mxCell>
        <mxCell id="1yzsQhWypgodVdBQaPRY-23" value="录制" style="rounded=0;whiteSpace=wrap;html=1;dashed=1;" vertex="1" parent="1">
          <mxGeometry x="-200" y="292.5" width="60" height="25" as="geometry" />
        </mxCell>
        <mxCell id="1yzsQhWypgodVdBQaPRY-24" value="" style="verticalLabelPosition=bottom;verticalAlign=top;html=1;shape=mxgraph.basic.rect;fillColor2=none;strokeWidth=1;size=20;indent=5;" vertex="1" parent="1">
          <mxGeometry x="-220" y="350" width="100" height="110" as="geometry" />
        </mxCell>
        <mxCell id="1yzsQhWypgodVdBQaPRY-25" value="H5" style="rounded=0;whiteSpace=wrap;html=1;dashed=1;fillColor=#d5e8d4;strokeColor=#82b366;" vertex="1" parent="1">
          <mxGeometry x="-220" y="350" width="100" height="30" as="geometry" />
        </mxCell>
        <mxCell id="1yzsQhWypgodVdBQaPRY-26" value="建立连接" style="rounded=0;whiteSpace=wrap;html=1;dashed=1;" vertex="1" parent="1">
          <mxGeometry x="-200" y="391" width="60" height="25" as="geometry" />
        </mxCell>
        <mxCell id="1yzsQhWypgodVdBQaPRY-27" value="录制" style="rounded=0;whiteSpace=wrap;html=1;dashed=1;" vertex="1" parent="1">
          <mxGeometry x="-200" y="422.5" width="60" height="25" as="geometry" />
        </mxCell>
        <mxCell id="1yzsQhWypgodVdBQaPRY-28" value="" style="verticalLabelPosition=bottom;verticalAlign=top;html=1;shape=mxgraph.basic.rect;fillColor2=none;strokeWidth=1;size=20;indent=5;" vertex="1" parent="1">
          <mxGeometry x="-220" y="490" width="100" height="110" as="geometry" />
        </mxCell>
        <mxCell id="1yzsQhWypgodVdBQaPRY-29" value="......." style="rounded=0;whiteSpace=wrap;html=1;dashed=1;fillColor=#d5e8d4;strokeColor=#82b366;" vertex="1" parent="1">
          <mxGeometry x="-220" y="490" width="100" height="30" as="geometry" />
        </mxCell>
        <mxCell id="1yzsQhWypgodVdBQaPRY-30" value="建立连接" style="rounded=0;whiteSpace=wrap;html=1;dashed=1;" vertex="1" parent="1">
          <mxGeometry x="-200" y="531" width="60" height="25" as="geometry" />
        </mxCell>
        <mxCell id="1yzsQhWypgodVdBQaPRY-31" value="录制" style="rounded=0;whiteSpace=wrap;html=1;dashed=1;" vertex="1" parent="1">
          <mxGeometry x="-200" y="562.5" width="60" height="25" as="geometry" />
        </mxCell>
        <mxCell id="1yzsQhWypgodVdBQaPRY-36" value="编码" style="rounded=0;whiteSpace=wrap;html=1;dashed=1;" vertex="1" parent="1">
          <mxGeometry x="70" y="375" width="60" height="25" as="geometry" />
        </mxCell>
        <mxCell id="1yzsQhWypgodVdBQaPRY-37" value="传输" style="rounded=0;whiteSpace=wrap;html=1;dashed=1;" vertex="1" parent="1">
          <mxGeometry x="70" y="412.5" width="60" height="25" as="geometry" />
        </mxCell>
        <mxCell id="1yzsQhWypgodVdBQaPRY-39" value="设备" style="rounded=0;whiteSpace=wrap;html=1;fillColor=#d5e8d4;gradientColor=#97d077;strokeColor=#82b366;" vertex="1" parent="1">
          <mxGeometry x="-275" y="168" width="215" height="32" as="geometry" />
        </mxCell>
        <mxCell id="1yzsQhWypgodVdBQaPRY-40" value="流媒体集群" style="rounded=0;whiteSpace=wrap;html=1;fillColor=#d5e8d4;gradientColor=#97d077;strokeColor=#82b366;" vertex="1" parent="1">
          <mxGeometry x="280" y="180" width="480" height="40" as="geometry" />
        </mxCell>
        <mxCell id="1yzsQhWypgodVdBQaPRY-42" value="FFmpeg" style="rounded=0;whiteSpace=wrap;html=1;dashed=1;" vertex="1" parent="1">
          <mxGeometry x="70" y="447.5" width="60" height="25" as="geometry" />
        </mxCell>
      </root>
    </mxGraphModel>
  </diagram>
</mxfile>
